<?xml version="1.0" encoding="utf-8"?>
<svg version="1.1" id="Layer_1" xmlns="http://www.w3.org/2000/svg" xmlns:xlink="http://www.w3.org/1999/xlink" x="0px" y="0px"
	 viewBox="0 0 2000 650" style="enable-background:new 0 0 2000 650;" xml:space="preserve">
<style type="text/css">
	.redooxLogo00{fill:#F81F01;}
	.redooxLogo01{fill:#FFFFFF;}
	.redooxLogo02{font-family:'Montserrat';  font-weight: 600;}
	.redooxLogo03{font-size:324.4715px;}
	.redooxLogo04{font-family:'Montserrat'; font-weight: 500;}
	.redooxLogo05{font-size:78.5752px;}
</style>

<g id="XMLID_1_">
	<path id="XMLID_2_" class="redooxLogo00" d="M18.8,129.7v378.6h61.8V192.1l180.7-1.8c0,0,39.6,1.6,53.9,38.1c0,0,16.3,35.7-11.4,66.2
		c0,0-44.8,45.2-47.9,48.4l-48.8-51l-87.4,1.3l90,94.5L89.8,508.3h88.3l72.7-73.3l72.2,73.3h87.4L297.6,390.9
		c0,0,43.7-42.8,51.3-52.2c0,0,37.9-32.2,32.7-94.1c-0.1-1.3-0.1-2.6-0.1-3.9c0.4-9.1-0.9-52-53.2-89.2c0,0-21.8-19.2-57.1-21.8
		H18.8z"/>
</g>
<text id="XMLID_3_" transform="matrix(1 0 0 1 420.6437 390.1934)" class="redooxLogo01 redooxLogo02 redooxLogo03">REDOOX</text>
<text id="XMLID_4_" transform="matrix(1 0 0 1 450 490.3691)" class="redooxLogo01 redooxLogo04 redooxLogo05">Impressive web marketing solutions.</text>
</svg>